<svg xmlns="http://www.w3.org/2000/svg" version="1.1" xmlns:xlink="http://www.w3.org/1999/xlink" xmlns:svgjs="http://svgjs.dev/svgjs" width="1000" height="999" viewBox="0 0 1000 999"><g transform="matrix(1,0,0,1,-0.215743440233382,-0.21552769679306039)"><svg viewBox="0 0 343 343" data-background-color="#398378" preserveAspectRatio="xMidYMid meet" height="999" width="1000" xmlns="http://www.w3.org/2000/svg" xmlns:xlink="http://www.w3.org/1999/xlink"><g id="tight-bounds" transform="matrix(1,0,0,1,0.0740000000000407,0.07400000000001228)"><svg viewBox="0 0 342.85155851775386 342.85155851775386" height="342.85155851775386" width="342.85155851775386"><g><svg></svg></g><g><svg viewBox="0 0 342.85155851775386 342.85155851775386" height="342.85155851775386" width="342.85155851775386"><g><path d="M0 171.426c0-94.676 76.75-171.426 171.426-171.426 94.676 0 171.426 76.75 171.426 171.426 0 94.676-76.75 171.426-171.426 171.426-94.676 0-171.426-76.75-171.426-171.426zM171.426 338.324c92.175 0 166.898-74.723 166.898-166.898 0-92.175-74.723-166.898-166.898-166.898-92.175 0-166.898 74.723-166.898 166.898 0 92.175 74.723 166.898 166.898 166.898z" data-fill-palette-color="tertiary" fill="#31c48d" stroke="transparent"></path><ellipse rx="164.56874808852186" ry="164.56874808852186" cx="171.42577925887693" cy="171.42577925887693" fill="#31c48d" stroke="transparent" stroke-width="0" fill-opacity="1" data-fill-palette-color="tertiary"></ellipse></g><g transform="matrix(1,0,0,1,64.84655864529837,146.3225735077877)"><svg viewBox="0 0 213.1584412271571 50.206411502178476" height="50.206411502178476" width="213.1584412271571"><g><svg viewBox="0 0 213.1584412271571 50.206411502178476" height="50.206411502178476" width="213.1584412271571"><g><svg viewBox="0 0 213.1584412271571 50.206411502178476" height="50.206411502178476" width="213.1584412271571"><g><svg viewBox="0 0 213.1584412271571 50.206411502178476" height="50.206411502178476" width="213.1584412271571"><g id="textblocktransform"><svg viewBox="0 0 213.1584412271571 50.206411502178476" height="50.206411502178476" width="213.1584412271571" id="textblock"><g><svg viewBox="0 0 213.1584412271571 50.206411502178476" height="50.206411502178476" width="213.1584412271571"><g transform="matrix(1,0,0,1,0,0)"><svg width="213.1584412271571" viewBox="0.9500000476837158 -35.54999923706055 196.2100067138672 46.220001220703125" height="50.206411502178476" data-palette-color="#398378"><path d="M16.89 0L0.95 0 0.95-5 4.61-5.79 4.61-29.74 0.95-30.52 0.95-35.55 4.61-35.55 13.33-35.55 27.59-12.79 27.73-12.79 27.73-29.74 23.07-30.52 23.07-35.55 35.33-35.55 39.01-35.55 39.01-30.52 35.33-29.74 35.33 0 26.88 0 12.35-22.27 12.21-22.27 12.21-5.79 16.89-5 16.89 0ZM49.73 0.51L49.73 0.51Q45.9 0.51 43.48-1.66 41.06-3.83 41.06-7.45L41.06-7.45Q41.06-9.91 42.39-11.82 43.72-13.72 46.4-14.81 49.07-15.89 53.1-15.89L53.1-15.89 55.86-15.89 55.86-17.46Q55.86-19.04 54.95-20.15 54.05-21.26 52.1-21.26L52.1-21.26Q51.27-21.26 50.55-21.06 49.83-20.85 49.24-20.46L49.24-20.46 48.65-17.09 42.62-17.09 42.5-24.44Q44.75-25.44 47.2-26.17 49.66-26.9 52.68-26.9L52.68-26.9Q58.08-26.9 61.25-24.43 64.43-21.95 64.43-17.36L64.43-17.36 64.43-7.62Q64.43-7.06 64.44-6.52 64.45-5.98 64.55-5.49L64.55-5.49 67.4-5 67.4 0 57.39 0Q57.08-0.44 56.71-1.17 56.35-1.9 56.2-2.64L56.2-2.64Q55-1.15 53.51-0.32 52.02 0.51 49.73 0.51ZM52.37-5.54L52.37-5.54Q53.29-5.54 54.23-5.92 55.17-6.3 55.86-7.06L55.86-7.06 55.86-10.86 53.2-10.86Q51.46-10.86 50.52-10.11 49.58-9.35 49.58-8.11L49.58-8.11Q49.58-6.91 50.36-6.23 51.14-5.54 52.37-5.54ZM75.95 10.67L75.95 10.67Q74.82 10.67 73.69 10.49 72.55 10.3 71.36 9.96L71.36 9.96 72.38 3.83Q72.87 3.96 73.32 4.02 73.77 4.08 74.26 4.08L74.26 4.08Q75.83 4.08 77.03 3.5 78.24 2.93 78.56 1.73L78.56 1.73 78.8 0.81 70.31-20.87 66.77-21.39 66.77-26.42 82.64-26.42 82.64-21.39 79.37-20.9 82.91-10.21 82.95-10.01 83.1-10.01 87.28-20.97 84.25-21.39 84.25-26.42 98.68-26.42 98.68-21.39 95.55-20.95 85.66 3.86Q84.96 5.64 83.76 7.19 82.56 8.74 80.66 9.7 78.75 10.67 75.95 10.67ZM113.05 0.51L113.05 0.51Q109.17 0.51 106.28-1.16 103.39-2.83 101.79-5.74 100.19-8.64 100.19-12.3L100.19-12.3 100.19-13.21Q100.19-17.24 101.6-20.34 103.02-23.44 105.75-25.18 108.49-26.93 112.47-26.9L112.47-26.9Q116.06-26.9 118.53-25.52 121.01-24.15 122.31-21.47 123.6-18.8 123.6-14.89L123.6-14.89 123.6-10.47 109.07-10.47 109.05-10.3Q109.25-9.06 109.89-8.09 110.54-7.13 111.69-6.57 112.83-6.01 114.52-6.01L114.52-6.01Q116.18-6.01 117.78-6.38 119.38-6.76 121.16-7.59L121.16-7.59 123.11-2.42Q121.33-1.15 118.77-0.32 116.2 0.51 113.05 0.51ZM108.98-15.89L109.07-15.77 115.79-15.77 115.79-16.41Q115.79-17.82 115.51-18.77 115.23-19.73 114.54-20.21 113.86-20.7 112.66-20.7L112.66-20.7Q111.37-20.7 110.6-20.08 109.83-19.46 109.48-18.37 109.12-17.29 108.98-15.89L108.98-15.89ZM139.35 0.51L139.35 0.51Q135.46 0.51 132.57-1.16 129.68-2.83 128.08-5.74 126.48-8.64 126.48-12.3L126.48-12.3 126.48-13.21Q126.48-17.24 127.9-20.34 129.31-23.44 132.05-25.18 134.78-26.93 138.76-26.9L138.76-26.9Q142.35-26.9 144.83-25.52 147.3-24.15 148.6-21.47 149.89-18.8 149.89-14.89L149.89-14.89 149.89-10.47 135.37-10.47 135.34-10.3Q135.54-9.06 136.18-8.09 136.83-7.13 137.98-6.57 139.13-6.01 140.81-6.01L140.81-6.01Q142.47-6.01 144.07-6.38 145.67-6.76 147.45-7.59L147.45-7.59 149.4-2.42Q147.62-1.15 145.06-0.32 142.49 0.51 139.35 0.51ZM135.27-15.89L135.37-15.77 142.08-15.77 142.08-16.41Q142.08-17.82 141.8-18.77 141.52-19.73 140.83-20.21 140.15-20.7 138.95-20.7L138.95-20.7Q137.66-20.7 136.89-20.08 136.12-19.46 135.77-18.37 135.41-17.29 135.27-15.89L135.27-15.89ZM166.64 0L152.48 0 152.48-5 155.6-5.79 155.6-20.61 151.89-21.39 151.89-26.42 163.63-26.42 163.9-22.9Q165.2-24.8 167.05-25.85 168.91-26.9 171.35-26.9L171.35-26.9Q173.82-26.9 175.59-25.84 177.36-24.78 178.26-22.61L178.26-22.61Q179.46-24.66 181.35-25.78 183.24-26.9 185.8-26.9L185.8-26.9Q189.64-26.9 191.83-24.32 194.03-21.73 194.03-16.36L194.03-16.36 194.03-5.79 197.16-5 197.16 0 182.97 0 182.97-5 185.49-5.79 185.49-16.36Q185.49-18.68 184.77-19.51 184.05-20.34 182.68-20.34L182.68-20.34Q181.55-20.34 180.65-19.91 179.75-19.48 179.06-18.68L179.06-18.68 179.06-5.79 181.26-5 181.26 0 168.35 0 168.35-5 170.54-5.79 170.54-16.36Q170.54-18.68 169.84-19.51 169.13-20.34 167.71-20.34L167.71-20.34Q166.61-20.34 165.71-19.91 164.81-19.48 164.12-18.65L164.12-18.65 164.12-5.79 166.64-5 166.64 0Z" opacity="1" transform="matrix(1,0,0,1,0,0)" fill="#398378" class="undefined-text-0" data-fill-palette-color="quaternary" id="text-0"></path></svg></g></svg></g></svg></g></svg></g><g></g></svg></g></svg></g></svg></g></svg></g><defs></defs></svg><rect width="342.85155851775386" height="342.85155851775386" fill="none" stroke="none" visibility="hidden"></rect></g></svg></g></svg>